<svg width="24" height="24" viewBox="0 0 24 24" fill="none" xmlns="http://www.w3.org/2000/svg">
<path d="M12 5C12.7572 5 13.4875 5.12382 14.1729 5.35059C14.0783 5.34794 13.9825 5.3457 13.8867 5.3457C12.611 5.34576 11.39 5.73723 10.4873 6.64355C9.58388 7.55078 9.17385 8.79786 9.17383 10.165V10.5508H7.01465V16.0264H9.17383V18.5039C6.72023 17.4104 5 14.9342 5 12.0508C5.00023 8.15337 8.16021 5 12 5ZM17.2822 7.43457C18.3498 8.67106 18.9999 10.2842 19 12.0508V12.0547C19.0037 13.7343 18.4092 15.359 17.3252 16.6357C16.6375 17.4456 15.7808 18.0804 14.8262 18.5039V16.0264H16.5928L16.7891 14.7549L17.1709 12.2803L17.4385 10.5508H17.2822V7.43457Z" stroke="#60656F" stroke-width="3"/>
<rect x="6.5" y="7.5" width="2" height="2" fill="#60656F"/>
</svg>
