<svg width="24" height="24" viewBox="0 0 24 24" fill="none" xmlns="http://www.w3.org/2000/svg">
<path d="M8.42969 4H15.5703C18.0139 4.00017 19.9998 5.98608 20 8.42969V15.5703C19.9999 16.7451 19.5329 17.8714 18.7021 18.7021C17.8714 19.5329 16.7451 19.9999 15.5703 20H8.42969C5.98608 19.9998 4.00017 18.0139 4 15.5703V8.42969L4.00586 8.20996C4.06027 7.11517 4.51908 6.07662 5.29785 5.29785C6.07662 4.51908 7.11517 4.06027 8.20996 4.00586L8.42969 4ZM8.25977 4.7002C7.31568 4.70026 6.41074 5.07559 5.74316 5.74316C5.07559 6.41074 4.70026 7.31568 4.7002 8.25977V15.7402C4.70032 17.7077 6.29231 19.2997 8.25977 19.2998H15.7402C16.6843 19.2997 17.5893 18.9244 18.2568 18.2568C18.9244 17.5893 19.2997 16.6843 19.2998 15.7402V8.25977C19.2997 6.29231 17.7077 4.70032 15.7402 4.7002H8.25977ZM12 8.25C12.9946 8.25 13.9481 8.64537 14.6514 9.34863C15.3546 10.0519 15.75 11.0054 15.75 12C15.75 12.9946 15.3546 13.9481 14.6514 14.6514C13.9481 15.3546 12.9946 15.75 12 15.75C11.0054 15.75 10.0519 15.3546 9.34863 14.6514C8.64537 13.9481 8.25 12.9946 8.25 12C8.25 11.0054 8.64537 10.0519 9.34863 9.34863C10.0519 8.64537 11.0054 8.25 12 8.25ZM12 8.9502C11.1911 8.9502 10.4157 9.27176 9.84375 9.84375C9.27176 10.4157 8.9502 11.1911 8.9502 12C8.9502 12.8089 9.27176 13.5843 9.84375 14.1562C10.4157 14.7282 11.1911 15.0498 12 15.0498C12.8089 15.0498 13.5843 14.7282 14.1562 14.1562C14.7282 13.5843 15.0498 12.8089 15.0498 12C15.0498 11.1911 14.7282 10.4157 14.1562 9.84375C13.5843 9.27176 12.8089 8.9502 12 8.9502ZM16.4629 6.97461C16.6119 6.97471 16.755 7.03425 16.8604 7.13965C16.9657 7.24505 17.0253 7.38807 17.0254 7.53711C17.0254 7.68629 16.9658 7.83006 16.8604 7.93555C16.755 8.04088 16.6119 8.09951 16.4629 8.09961C16.3137 8.09961 16.1699 8.04104 16.0645 7.93555C15.959 7.83006 15.9004 7.6863 15.9004 7.53711C15.9005 7.38811 15.9591 7.24503 16.0645 7.13965C16.1699 7.03416 16.3137 6.97461 16.4629 6.97461Z" stroke="#60656F"/>
</svg>
