<svg width="24" height="24" viewBox="0 0 24 24" fill="none" xmlns="http://www.w3.org/2000/svg">
<path d="M15.25 5.5C16.1339 5.5 16.9018 5.85319 17.4482 6.45605L17.6406 6.66797L17.9209 6.60938C18.2054 6.54992 18.4846 6.47276 18.7588 6.38281C18.6002 6.53579 18.428 6.67348 18.2402 6.78809L18.5654 7.71094C18.7123 7.6919 18.858 7.66788 19.0029 7.64062C18.8321 7.79642 18.6542 7.9432 18.4678 8.07812L18.248 8.23828L18.2617 8.50977C18.269 8.65102 18.2695 8.78634 18.2695 8.94434C18.2695 13.405 14.9111 18.5 8.84668 18.5C7.66369 18.5 6.53102 18.2754 5.48633 17.8691C6.79225 17.6672 7.98537 17.1297 8.97363 16.334L10.0508 15.4668L8.66797 15.4443C7.63647 15.4277 6.73832 14.873 6.21875 14.0508C6.52409 14.039 6.82433 13.9954 7.11328 13.9141L7.07715 12.9424C5.95672 12.7164 5.05654 11.842 4.77539 10.7139C5.08788 10.8014 5.42016 10.8525 5.76758 10.8525H7.44238L6.04102 9.93457C5.24072 9.41008 4.71484 8.48071 4.71484 7.4209C4.71487 7.12832 4.75636 6.84435 4.83301 6.57617C6.61322 8.46902 9.09059 9.69774 11.8447 9.83887L12.501 9.87305L12.3584 9.23145C12.3091 9.01001 12.2803 8.77462 12.2803 8.5332C12.2803 6.84991 13.6245 5.50026 15.25 5.5Z" stroke="#60656F"/>
</svg>
