<svg width="24" height="24" viewBox="0 0 24 24" fill="none" xmlns="http://www.w3.org/2000/svg">
<path d="M12.0586 20C12.0973 19.9999 12.1543 19.9995 12.2275 19.999C12.3743 19.998 12.5858 19.9961 12.8438 19.9922C13.3599 19.9843 14.0613 19.969 14.8027 19.9375C15.5453 19.906 16.3229 19.8589 16.9932 19.7891C17.6818 19.7173 18.2007 19.6257 18.4629 19.5254H18.4639C18.9768 19.3292 19.477 18.6957 19.6533 17.7539V17.7529C19.8232 16.847 19.9116 15.4204 19.9561 14.1943C19.9781 13.5867 19.9886 13.037 19.9941 12.6396C19.9969 12.4412 19.9983 12.2805 19.999 12.1699C19.9994 12.1148 19.9999 12.0718 20 12.043V11.957C19.9999 11.9282 19.9994 11.8852 19.999 11.8301C19.9983 11.7195 19.9969 11.5588 19.9941 11.3604C19.9886 10.963 19.9781 10.4133 19.9561 9.80566C19.9116 8.57956 19.8232 7.15286 19.6533 6.24707V6.24609C19.477 5.30418 18.9767 4.67061 18.4639 4.47461H18.4629C18.2007 4.37426 17.6818 4.28272 16.9932 4.21094C16.3229 4.14108 15.5453 4.095 14.8027 4.06348C14.0613 4.03201 13.3599 4.0157 12.8438 4.00781C12.5858 4.00387 12.3743 4.00196 12.2275 4.00098C12.1543 4.00049 12.0973 4.00012 12.0586 4H11.9414C11.9027 4.00012 11.8457 4.00049 11.7725 4.00098C11.6257 4.00196 11.4142 4.00387 11.1562 4.00781C10.6401 4.0157 9.93874 4.03201 9.19727 4.06348C8.45471 4.095 7.6771 4.14108 7.00684 4.21094C6.31819 4.28272 5.7993 4.37426 5.53711 4.47461H5.53613C5.02331 4.67062 4.523 5.30422 4.34668 6.24609V6.24707L4.28711 6.60938C4.15578 7.50606 4.08285 8.73266 4.04395 9.80566C4.02191 10.4133 4.01137 10.963 4.00586 11.3604C4.00311 11.5588 4.00166 11.7195 4.00098 11.8301C4.00064 11.8852 4.00008 11.9282 4 11.957V12.043C4.00008 12.0718 4.00064 12.1148 4.00098 12.1699C4.00166 12.2805 4.00311 12.4412 4.00586 12.6396C4.01137 13.037 4.02191 13.5867 4.04395 14.1943C4.0884 15.4204 4.17683 16.847 4.34668 17.7529V17.7539C4.52301 18.6959 5.02406 19.3294 5.53711 19.5254C5.79931 19.6257 6.31818 19.7173 7.00684 19.7891C7.67712 19.8589 8.45469 19.906 9.19727 19.9375C9.93874 19.969 10.6401 19.9843 11.1562 19.9922C11.4142 19.9961 11.6257 19.998 11.7725 19.999C11.8457 19.9995 11.9027 19.9999 11.9414 20H12.0586Z" stroke="#60656F"/>
<path d="M13.4365 12.0115L10.29 9.47046V14.5525L13.4365 12.0115Z" stroke="#60656F"/>
</svg>
